<svg version="1.1" class="clearos-svg clearfoundation app-vendor-clearfoundation app-free app-category-server app-sub-category-directory" viewBox="0 0 400 400" preserveAspectRatio="xMinYMin" xmlns="http://www.w3.org/2000/svg" xmlns:xlink= "http://www.w3.org/1999/xlink">
     <path fill="#686868" d="M 5.3310544,296.14053 25.472471,269.72321 C 36.55025,255.19367 46.349973,242.358 47.249635,241.19949 c 1.293089,-1.66511 1.644692,10.34035 1.678451,57.31082 0.02348,32.67945 -0.410478,59.40684 -0.964367,59.3942 C 47.40983,357.89241 37.59089,345.06477 26.143851,329.39983 L 5.3310544,300.91814 c -0.4149998,91.29261 -3.6726522,-715.59733 0,-4.77761 z m 54.3818246,2.7448 0,-26.89455 111.939461,0 c 111.21294,0 111.96243,-0.0182 115.47746,-2.78298 3.51714,-2.76658 3.53798,-2.89225 3.53798,-21.33543 0,-16.26452 -0.31648,-18.94336 -2.5664,-21.7224 l -2.56641,-3.16997 -109.67093,-0.67138 -109.670917,-0.67138 -3.302699,-3.84022 -3.302696,-3.84021 0.398265,-61.2837 C 60.347635,97.024922 60.606894,90.895511 62.805322,86.018375 66.084244,78.744199 71.268809,73.4785 78.511533,70.066372 84.519961,67.235736 85.284896,67.217616 214.46609,66.845633 l 129.91213,-0.374085 0,26.893616 0,26.893616 -112.79193,0 c -111.00157,0 -112.83455,0.0426 -115.47745,2.68553 -2.42772,2.4277 -2.68552,4.47586 -2.68552,21.33541 0,16.35978 0.31511,19.03916 2.56616,21.81988 l 2.56618,3.16996 101.16212,0.67137 c 100.36164,0.66607 101.20463,0.69425 106.53317,3.56193 7.02146,3.77874 10.59742,7.74187 14.36909,15.92484 3.00367,6.51672 3.09799,7.95514 3.50208,53.41203 0.34808,39.15788 0.0778,47.87618 -1.67149,53.89317 -2.73746,9.41651 -11.8076,19.54628 -21.97005,24.53672 l -7.65724,3.76022 -126.55523,0.37502 -126.555231,0.37502 z M 353.77755,90.718038 c 0,-35.024939 0.5025,-59.081487 1.23413,-59.081487 1.05418,0 38.04773,49.135361 43.0364,57.16155 1.57989,2.541881 -0.15401,5.265087 -20.26433,31.826519 -12.09564,15.97573 -22.44524,29.07561 -22.99913,29.11084 -0.55389,0.0353 -1.00707,-26.5226 -1.00707,-59.017422 z"
     id="path1000"
     />
</svg>
